{"title":"Suspicion(1941)MP-4[DaScubaDude]","uid":12352442,"size":1218725352,"categoryP":"video","categoryS":"movies","magnet":"?xt=urn:btih:c938ef5859e2bb3d890c801f89c6c32c3101878a&amp;dn=Suspicion%281941%29MP-4%5BDaScubaDude%5D&amp;tr=udp%3A%2F%2Ftracker.openbittorrent.com%3A80&amp;tr=udp%3A%2F%2Fopen.demonii.com%3A1337&amp;tr=udp%3A%2F%2Ftracker.coppersurfer.tk%3A6969&amp;tr=udp%3A%2F%2Fexodus.desync.com%3A6969","seeders":0,"leechers":0,"uploader":"dascuba","files":1,"time":1441442813,"description":"Suspicion (1941)\nNot Rated  |  99 min  |  Mystery, Thriller  |  14 November 1941 (USA)\n7.5 Your rating:   -/10   Ratings: 7.5/10 from 21,714 users   \nReviews: 149 user | 79 critic\nA shy young heiress marries a charming gentleman, and soon begins to suspect he is planning to murder her.\n\nDirector: Alfred Hitchcock\nWriters: Samson Raphaelson (screen play), Joan Harrison (screen play), 2 more credits Â»\nStars: Cary Grant, Joan Fontaine, Cedric Hardwicke \n\nGeneral\nComplete name                            : C:SuspicionSUSPICION_Title1.mp4\nFormat                                   : MPEG-4\nFormat profile                           : Base Media\nCodec ID                                 : isom\nFile size                                : 1.14 GiB\nDuration                                 : 1h 39mn\nOverall bit rate mode                    : Constant\nOverall bit rate                         : 1 634 Kbps\nMovie name                               : SUSPICION\nGenre                                    : Thriller\nWriting application                      : Lavf54.6.100\n\nVideo\nID                                       : 1\nFormat                                   : MPEG-4 Visual\nFormat settings, BVOP                    : No\nFormat settings, QPel                    : No\nFormat settings, GMC                     : No warppoints\nFormat settings, Matrix                  : Default (H.263)\nCodec ID                                 : 20\nDuration                                 : 1h 39mn\nBit rate mode                            : Constant\nBit rate                                 : 1 500 Kbps\nWidth                                    : 720 pixels\nHeight                                   : 540 pixels\nDisplay aspect ratio                     : 4:3\nFrame rate mode                          : Constant\nFrame rate                               : 29.970 fps\nColor space                              : YUV\nChroma subsampling                       : 4:2:0\nBit depth                                : 8 bits\nScan type                                : Progressive\nCompression mode                         : Lossy\nBits/(Pixel*Frame)                       : 0.129\nStream size                              : 1.04 GiB (92%)\nWriting library                          : Lavc54.23.100\n\nAudio\nID                                       : 2\nFormat                                   : MPEG Audio\nFormat version                           : Version 1\nFormat profile                           : Layer 3\nCodec ID                                 : 6B\nDuration                                 : 1h 39mn\nBit rate mode                            : Constant\nBit rate                                 : 128 Kbps\nChannel(s)                               : 2 channels\nChannel(s)_Original                      : 1 channel\nSampling rate                            : 44.1 KHz\nCompression mode                         : Lossy\nStream size                              : 91.1 MiB (8%)\nWriting library                          : LAME3.99.5","torrent":{"xt":"urn:btih:c938ef5859e2bb3d890c801f89c6c32c3101878a","amp;dn":"Suspicion%281941%29MP-4%5BDaScubaDude%5D","amp;tr":["udp%3A%2F%2Ftracker.openbittorrent.com%3A80","udp%3A%2F%2Fopen.demonii.com%3A1337","udp%3A%2F%2Ftracker.coppersurfer.tk%3A6969","udp%3A%2F%2Fexodus.desync.com%3A6969"],"infoHash":"c938ef5859e2bb3d890c801f89c6c32c3101878a","infoHashBuffer":{"type":"Buffer","data":[201,56,239,88,89,226,187,61,137,12,128,31,137,198,195,44,49,1,135,138]},"announce":[],"urlList":[]}}